<mxfile host="app.diagrams.net" modified="2023-08-29T08:11:21.220Z" agent="Mozilla/5.0 (Windows NT 10.0; Win64; x64) AppleWebKit/537.36 (KHTML, like Gecko) Chrome/116.0.0.0 Safari/537.36" etag="zP4JdZDvBCJLeA6O7hQu" version="21.6.7" type="github">
  <diagram name="第 1 页" id="8VU_JW2jNcm3ODKiE2Rf">
    <mxGraphModel dx="1434" dy="758" grid="1" gridSize="10" guides="1" tooltips="1" connect="1" arrows="1" fold="1" page="1" pageScale="1" pageWidth="827" pageHeight="1169" math="0" shadow="0">
      <root>
        <mxCell id="0" />
        <mxCell id="1" parent="0" />
        <mxCell id="wZoTuEtqvF41PbBGcXk--37" value="" style="rounded=1;whiteSpace=wrap;html=1;" vertex="1" parent="1">
          <mxGeometry x="60" y="170" width="280" height="150" as="geometry" />
        </mxCell>
        <mxCell id="wZoTuEtqvF41PbBGcXk--29" value="" style="rounded=1;whiteSpace=wrap;html=1;" vertex="1" parent="1">
          <mxGeometry x="20" y="475" width="410" height="55" as="geometry" />
        </mxCell>
        <mxCell id="wZoTuEtqvF41PbBGcXk--2" value="" style="rounded=0;whiteSpace=wrap;html=1;" vertex="1" parent="1">
          <mxGeometry x="100" y="200" width="80" height="90" as="geometry" />
        </mxCell>
        <mxCell id="wZoTuEtqvF41PbBGcXk--3" value="&lt;font face=&quot;Comic Sans MS&quot;&gt;level files&lt;/font&gt;" style="rounded=0;whiteSpace=wrap;html=1;gradientColor=none;fillStyle=hatch;" vertex="1" parent="1">
          <mxGeometry x="100" y="200" width="80" height="90" as="geometry" />
        </mxCell>
        <mxCell id="wZoTuEtqvF41PbBGcXk--4" value="&lt;font face=&quot;Comic Sans MS&quot;&gt;level files&lt;/font&gt;" style="rounded=0;whiteSpace=wrap;html=1;gradientColor=none;fillStyle=hatch;" vertex="1" parent="1">
          <mxGeometry x="230" y="200" width="80" height="90" as="geometry" />
        </mxCell>
        <mxCell id="wZoTuEtqvF41PbBGcXk--5" value="&lt;font face=&quot;Comic Sans MS&quot;&gt;level files&lt;/font&gt;" style="rounded=0;whiteSpace=wrap;html=1;fillColor=#CCCCCC;strokeColor=#314354;fontColor=#ffffff;" vertex="1" parent="1">
          <mxGeometry x="360" y="200" width="80" height="90" as="geometry" />
        </mxCell>
        <mxCell id="wZoTuEtqvF41PbBGcXk--6" value="&lt;font face=&quot;Comic Sans MS&quot;&gt;Query: search K vectors like [a,b,c...] + {where}&lt;/font&gt;" style="text;html=1;align=center;verticalAlign=middle;resizable=0;points=[];autosize=1;strokeColor=none;fillColor=none;" vertex="1" parent="1">
          <mxGeometry x="95" y="110" width="290" height="30" as="geometry" />
        </mxCell>
        <mxCell id="wZoTuEtqvF41PbBGcXk--12" value="&lt;font face=&quot;Comic Sans MS&quot;&gt;&lt;br&gt;Select the level files for the query&lt;/font&gt;" style="text;html=1;align=center;verticalAlign=middle;resizable=0;points=[];autosize=1;strokeColor=none;fillColor=none;" vertex="1" parent="1">
          <mxGeometry x="90" y="160" width="220" height="40" as="geometry" />
        </mxCell>
        <mxCell id="wZoTuEtqvF41PbBGcXk--13" value="" style="endArrow=classic;html=1;rounded=0;endWidth=8;shape=flexArrow;endSize=6;strokeWidth=1;fillColor=default;" edge="1" parent="1">
          <mxGeometry width="50" height="50" relative="1" as="geometry">
            <mxPoint x="139.5" y="300" as="sourcePoint" />
            <mxPoint x="139.5" y="370" as="targetPoint" />
          </mxGeometry>
        </mxCell>
        <mxCell id="wZoTuEtqvF41PbBGcXk--15" value="" style="endArrow=classic;html=1;rounded=0;endWidth=8;shape=flexArrow;endSize=6;strokeWidth=1;fillColor=default;" edge="1" parent="1">
          <mxGeometry width="50" height="50" relative="1" as="geometry">
            <mxPoint x="269.5" y="300" as="sourcePoint" />
            <mxPoint x="269.5" y="370" as="targetPoint" />
          </mxGeometry>
        </mxCell>
        <mxCell id="wZoTuEtqvF41PbBGcXk--16" value="&lt;font face=&quot;Comic Sans MS&quot;&gt;Index&lt;/font&gt;" style="shape=cylinder3;whiteSpace=wrap;html=1;boundedLbl=1;backgroundOutline=1;size=15;" vertex="1" parent="1">
          <mxGeometry x="107.5" y="380" width="65" height="60" as="geometry" />
        </mxCell>
        <mxCell id="wZoTuEtqvF41PbBGcXk--17" value="&lt;font face=&quot;Comic Sans MS&quot;&gt;Index&lt;/font&gt;" style="shape=cylinder3;whiteSpace=wrap;html=1;boundedLbl=1;backgroundOutline=1;size=15;" vertex="1" parent="1">
          <mxGeometry x="237.5" y="380" width="65" height="60" as="geometry" />
        </mxCell>
        <mxCell id="wZoTuEtqvF41PbBGcXk--18" value="" style="endArrow=classic;html=1;rounded=0;" edge="1" parent="1">
          <mxGeometry width="50" height="50" relative="1" as="geometry">
            <mxPoint x="120" y="440" as="sourcePoint" />
            <mxPoint x="90" y="490" as="targetPoint" />
          </mxGeometry>
        </mxCell>
        <mxCell id="wZoTuEtqvF41PbBGcXk--20" value="" style="endArrow=classic;html=1;rounded=0;" edge="1" parent="1">
          <mxGeometry width="50" height="50" relative="1" as="geometry">
            <mxPoint x="160" y="440" as="sourcePoint" />
            <mxPoint x="190" y="490" as="targetPoint" />
          </mxGeometry>
        </mxCell>
        <mxCell id="wZoTuEtqvF41PbBGcXk--21" value="&lt;font face=&quot;Comic Sans MS&quot;&gt;cluster&lt;/font&gt;" style="ellipse;whiteSpace=wrap;html=1;fillColor=#dae8fc;strokeColor=#6c8ebf;" vertex="1" parent="1">
          <mxGeometry x="50" y="490" width="60" height="30" as="geometry" />
        </mxCell>
        <mxCell id="wZoTuEtqvF41PbBGcXk--22" value="……" style="text;html=1;align=center;verticalAlign=middle;resizable=0;points=[];autosize=1;strokeColor=none;fillColor=none;" vertex="1" parent="1">
          <mxGeometry x="115" y="488" width="50" height="30" as="geometry" />
        </mxCell>
        <mxCell id="wZoTuEtqvF41PbBGcXk--23" value="&lt;font face=&quot;Comic Sans MS&quot;&gt;cluster&lt;/font&gt;" style="ellipse;whiteSpace=wrap;html=1;fillColor=#dae8fc;strokeColor=#6c8ebf;" vertex="1" parent="1">
          <mxGeometry x="165" y="490" width="60" height="30" as="geometry" />
        </mxCell>
        <mxCell id="wZoTuEtqvF41PbBGcXk--24" value="&lt;font face=&quot;Comic Sans MS&quot;&gt;cluster&lt;/font&gt;" style="ellipse;whiteSpace=wrap;html=1;fillColor=#dae8fc;strokeColor=#6c8ebf;" vertex="1" parent="1">
          <mxGeometry x="230" y="490" width="60" height="30" as="geometry" />
        </mxCell>
        <mxCell id="wZoTuEtqvF41PbBGcXk--25" value="……" style="text;html=1;align=center;verticalAlign=middle;resizable=0;points=[];autosize=1;strokeColor=none;fillColor=none;" vertex="1" parent="1">
          <mxGeometry x="295" y="488" width="50" height="30" as="geometry" />
        </mxCell>
        <mxCell id="wZoTuEtqvF41PbBGcXk--26" value="&lt;font face=&quot;Comic Sans MS&quot;&gt;cluster&lt;/font&gt;" style="ellipse;whiteSpace=wrap;html=1;fillColor=#dae8fc;strokeColor=#6c8ebf;" vertex="1" parent="1">
          <mxGeometry x="345" y="490" width="60" height="30" as="geometry" />
        </mxCell>
        <mxCell id="wZoTuEtqvF41PbBGcXk--27" value="" style="endArrow=classic;html=1;rounded=0;exitX=0.254;exitY=1.067;exitDx=0;exitDy=0;exitPerimeter=0;entryX=0.5;entryY=0;entryDx=0;entryDy=0;" edge="1" parent="1" source="wZoTuEtqvF41PbBGcXk--17" target="wZoTuEtqvF41PbBGcXk--24">
          <mxGeometry width="50" height="50" relative="1" as="geometry">
            <mxPoint x="170" y="450" as="sourcePoint" />
            <mxPoint x="200" y="500" as="targetPoint" />
          </mxGeometry>
        </mxCell>
        <mxCell id="wZoTuEtqvF41PbBGcXk--28" value="" style="endArrow=classic;html=1;rounded=0;exitX=0.254;exitY=1.067;exitDx=0;exitDy=0;exitPerimeter=0;entryX=0.3;entryY=0;entryDx=0;entryDy=0;entryPerimeter=0;" edge="1" parent="1" target="wZoTuEtqvF41PbBGcXk--26">
          <mxGeometry width="50" height="50" relative="1" as="geometry">
            <mxPoint x="296.5" y="440" as="sourcePoint" />
            <mxPoint x="302.5" y="486" as="targetPoint" />
          </mxGeometry>
        </mxCell>
        <mxCell id="wZoTuEtqvF41PbBGcXk--35" value="search top K" style="text;html=1;align=center;verticalAlign=middle;resizable=0;points=[];autosize=1;strokeColor=none;fillColor=none;" vertex="1" parent="1">
          <mxGeometry x="172.5" y="540" width="90" height="30" as="geometry" />
        </mxCell>
        <mxCell id="wZoTuEtqvF41PbBGcXk--39" value="" style="endArrow=classic;html=1;rounded=0;entryX=0.918;entryY=0.007;entryDx=0;entryDy=0;entryPerimeter=0;" edge="1" parent="1" target="wZoTuEtqvF41PbBGcXk--37">
          <mxGeometry width="50" height="50" relative="1" as="geometry">
            <mxPoint x="350" y="140" as="sourcePoint" />
            <mxPoint x="340" y="180" as="targetPoint" />
          </mxGeometry>
        </mxCell>
        <mxCell id="wZoTuEtqvF41PbBGcXk--40" value="" style="endArrow=classic;startArrow=classic;html=1;rounded=0;" edge="1" parent="1">
          <mxGeometry width="50" height="50" relative="1" as="geometry">
            <mxPoint x="320" y="850" as="sourcePoint" />
            <mxPoint x="440" y="850" as="targetPoint" />
            <Array as="points">
              <mxPoint x="320" y="780" />
              <mxPoint x="440" y="780" />
              <mxPoint x="440" y="820" />
            </Array>
          </mxGeometry>
        </mxCell>
        <mxCell id="wZoTuEtqvF41PbBGcXk--41" value="&lt;font face=&quot;Comic Sans MS&quot;&gt;writeVec&lt;/font&gt;" style="rounded=0;whiteSpace=wrap;html=1;" vertex="1" parent="1">
          <mxGeometry x="290" y="850" width="60" height="30" as="geometry" />
        </mxCell>
        <mxCell id="wZoTuEtqvF41PbBGcXk--42" value="" style="endArrow=classic;html=1;rounded=0;" edge="1" parent="1">
          <mxGeometry width="50" height="50" relative="1" as="geometry">
            <mxPoint x="319.5" y="880" as="sourcePoint" />
            <mxPoint x="320" y="920" as="targetPoint" />
          </mxGeometry>
        </mxCell>
        <mxCell id="wZoTuEtqvF41PbBGcXk--44" value="" style="endArrow=classic;html=1;rounded=0;" edge="1" parent="1">
          <mxGeometry width="50" height="50" relative="1" as="geometry">
            <mxPoint x="320" y="900" as="sourcePoint" />
            <mxPoint x="320" y="820" as="targetPoint" />
            <Array as="points">
              <mxPoint x="280" y="900" />
              <mxPoint x="280" y="820" />
            </Array>
          </mxGeometry>
        </mxCell>
        <mxCell id="wZoTuEtqvF41PbBGcXk--47" value="&lt;font face=&quot;Comic Sans MS&quot;&gt;writeCid&lt;br&gt;writeIndex&lt;/font&gt;" style="rounded=0;whiteSpace=wrap;html=1;" vertex="1" parent="1">
          <mxGeometry x="285" y="920" width="70" height="40" as="geometry" />
        </mxCell>
        <mxCell id="wZoTuEtqvF41PbBGcXk--49" value="" style="endArrow=none;html=1;rounded=0;exitX=0.5;exitY=1;exitDx=0;exitDy=0;entryX=0.5;entryY=1;entryDx=0;entryDy=0;" edge="1" parent="1" source="wZoTuEtqvF41PbBGcXk--47" target="wZoTuEtqvF41PbBGcXk--50">
          <mxGeometry width="50" height="50" relative="1" as="geometry">
            <mxPoint x="360" y="1040" as="sourcePoint" />
            <mxPoint x="440" y="1000" as="targetPoint" />
            <Array as="points">
              <mxPoint x="320" y="1000" />
              <mxPoint x="440" y="1000" />
            </Array>
          </mxGeometry>
        </mxCell>
        <mxCell id="wZoTuEtqvF41PbBGcXk--50" value="&lt;font face=&quot;Comic Sans MS&quot;&gt;Vector Index&lt;br&gt;train &amp;amp;&lt;br&gt;Add&lt;/font&gt;" style="rounded=0;whiteSpace=wrap;html=1;" vertex="1" parent="1">
          <mxGeometry x="405" y="850" width="70" height="80" as="geometry" />
        </mxCell>
        <mxCell id="wZoTuEtqvF41PbBGcXk--51" value="" style="endArrow=classic;html=1;rounded=0;" edge="1" parent="1">
          <mxGeometry width="50" height="50" relative="1" as="geometry">
            <mxPoint x="379.5" y="1000" as="sourcePoint" />
            <mxPoint x="379.5" y="1040" as="targetPoint" />
          </mxGeometry>
        </mxCell>
        <mxCell id="wZoTuEtqvF41PbBGcXk--53" value="&lt;font face=&quot;Comic Sans MS&quot;&gt;Finish one level file&lt;/font&gt;" style="rounded=0;whiteSpace=wrap;html=1;" vertex="1" parent="1">
          <mxGeometry x="320" y="1040" width="120" height="30" as="geometry" />
        </mxCell>
        <mxCell id="wZoTuEtqvF41PbBGcXk--54" value="" style="endArrow=classic;html=1;rounded=0;" edge="1" parent="1">
          <mxGeometry width="50" height="50" relative="1" as="geometry">
            <mxPoint x="380" y="750" as="sourcePoint" />
            <mxPoint x="380" y="780" as="targetPoint" />
          </mxGeometry>
        </mxCell>
        <mxCell id="wZoTuEtqvF41PbBGcXk--56" value="&lt;font face=&quot;Comic Sans MS&quot;&gt;flushTableToDisk&lt;/font&gt;" style="rounded=0;whiteSpace=wrap;html=1;" vertex="1" parent="1">
          <mxGeometry x="320" y="720" width="120" height="30" as="geometry" />
        </mxCell>
      </root>
    </mxGraphModel>
  </diagram>
</mxfile>
